<?xml version="1.0" standalone="no"?>
<!DOCTYPE svg PUBLIC "-//W3C//DTD SVG 20010904//EN"
 "http://www.w3.org/TR/2001/REC-SVG-20010904/DTD/svg10.dtd">
<svg version="1.0" xmlns="http://www.w3.org/2000/svg"
 width="501.000000pt" height="501.000000pt" viewBox="0 0 501.000000 501.000000"
 preserveAspectRatio="xMidYMid meet">

<g transform="translate(0.000000,501.000000) scale(0.100000,-0.100000)"
fill="#000000" stroke="none">
<path d="M448 4933 c6 -2 18 -2 25 0 6 3 1 5 -13 5 -14 0 -19 -2 -12 -5z"/>
<path d="M1366 4931 c-3 -4 6 -6 19 -3 14 2 25 6 25 8 0 8 -39 4 -44 -5z"/>
<path d="M1646 4931 c-3 -4 6 -6 19 -3 14 2 25 6 25 8 0 8 -39 4 -44 -5z"/>
<path d="M520 4916 c0 -2 9 -6 20 -9 11 -3 18 -1 14 4 -5 9 -34 13 -34 5z"/>
<path d="M1490 4916 c0 -2 7 -7 16 -10 8 -3 12 -2 9 4 -6 10 -25 14 -25 6z"/>
<path d="M1941 4894 c0 -11 3 -14 6 -6 3 7 2 16 -1 19 -3 4 -6 -2 -5 -13z"/>
<path d="M1141 4884 c0 -11 3 -14 6 -6 3 7 2 16 -1 19 -3 4 -6 -2 -5 -13z"/>
<path d="M1366 4891 c-4 -5 3 -7 14 -4 23 6 26 13 6 13 -8 0 -17 -4 -20 -9z"/>
<path d="M1668 4893 c7 -3 16 -2 19 1 4 3 -2 6 -13 5 -11 0 -14 -3 -6 -6z"/>
<path d="M625 4880 c-3 -6 1 -7 9 -4 18 7 21 14 7 14 -6 0 -13 -4 -16 -10z"/>
<path d="M1273 4883 c9 -2 23 -2 30 0 6 3 -1 5 -18 5 -16 0 -22 -2 -12 -5z"/>
<path d="M1483 4883 c9 -2 23 -2 30 0 6 3 -1 5 -18 5 -16 0 -22 -2 -12 -5z"/>
<path d="M1548 4883 c6 -2 18 -2 25 0 6 3 1 5 -13 5 -14 0 -19 -2 -12 -5z"/>
<path d="M96 4867 c3 -10 9 -15 12 -12 3 3 0 11 -7 18 -10 9 -11 8 -5 -6z"/>
<path d="M1500 4860 c-9 -6 -10 -10 -3 -10 6 0 15 5 18 10 8 12 4 12 -15 0z"/>
<path d="M1570 4860 c-9 -6 -10 -10 -3 -10 6 0 15 5 18 10 8 12 4 12 -15 0z"/>
<path d="M1640 4859 c0 -5 11 -9 25 -9 14 0 25 2 25 4 0 2 -11 6 -25 8 -14 3
-25 1 -25 -3z"/>
<path d="M1900 4860 c-9 -6 -10 -10 -3 -10 6 0 15 5 18 10 8 12 4 12 -15 0z"/>
<path d="M1278 4853 c7 -3 16 -2 19 1 4 3 -2 6 -13 5 -11 0 -14 -3 -6 -6z"/>
<path d="M623 3107 c-31 -16 -29 -30 7 -44 39 -14 71 6 54 34 -13 22 -31 25
-61 10z"/>
<path d="M927 3113 c-14 -13 -7 -52 11 -55 22 -5 72 13 72 27 0 10 -46 35 -65
35 -7 0 -15 -3 -18 -7z"/>
<path d="M900 2922 c-34 -5 -90 -60 -90 -89 0 -13 -6 -23 -14 -23 -20 0 -27
-13 -14 -30 8 -12 9 -12 4 3 -4 14 1 17 24 17 20 0 30 -5 30 -15 0 -8 9 -15
20 -15 15 0 20 -7 20 -25 0 -18 -5 -25 -20 -25 -13 0 -20 -7 -20 -19 0 -13 -9
-20 -30 -24 -16 -4 -30 -12 -30 -18 0 -9 3 -9 14 0 11 9 14 6 14 -14 0 -26
-13 -34 -21 -12 -3 7 -6 7 -6 1 -1 -6 8 -19 20 -30 20 -18 21 -18 120 82 88
90 99 105 99 137 0 64 -54 108 -120 99z"/>
<path d="M648 2889 c-10 -5 -18 -14 -18 -19 0 -6 8 -10 18 -10 14 0 15 2 2 10
-13 8 -12 10 3 10 9 0 17 5 17 10 0 12 0 12 -22 -1z"/>
<path d="M783 2839 c-2 -23 3 -25 10 -4 4 8 3 16 -1 19 -4 3 -9 -4 -9 -15z"/>
<path d="M725 2839 c-4 -6 -5 -12 -2 -15 2 -3 7 2 10 11 7 17 1 20 -8 4z"/>
<path d="M620 2816 c0 -8 4 -17 9 -20 5 -4 7 3 4 14 -6 23 -13 26 -13 6z"/>
<path d="M735 2807 l-20 -20 25 13 c32 16 33 17 23 23 -4 2 -17 -5 -28 -16z"/>
<path d="M732 2777 c-6 -7 -7 -18 -3 -26 6 -9 11 -10 15 -2 4 6 2 11 -4 11 -6
0 -8 5 -5 11 4 6 14 8 22 5 8 -3 11 -1 8 4 -8 14 -20 13 -33 -3z"/>
<path d="M660 2749 c0 -5 5 -7 10 -4 6 3 10 8 10 11 0 2 -4 4 -10 4 -5 0 -10
-5 -10 -11z"/>
<path d="M690 2735 c-11 -13 -10 -14 4 -9 9 3 16 10 16 15 0 13 -6 11 -20 -6z"/>
<path d="M495 2677 c11 -98 44 -158 113 -201 43 -27 126 -56 158 -56 l23 0 3
-252 3 -253 27 -47 c52 -87 165 -146 259 -135 149 18 238 117 247 275 4 81 4
82 -19 82 -23 0 -24 -3 -25 -74 -2 -78 -9 -98 -57 -160 -84 -106 -259 -101
-343 11 -46 60 -55 118 -54 348 l1 201 59 11 c154 29 240 121 240 255 0 37 -4
47 -20 51 -18 5 -20 0 -20 -49 0 -134 -111 -224 -275 -224 -164 0 -275 90
-275 222 0 50 -1 53 -26 53 -26 0 -26 0 -19 -58z"/>
<path d="M742 2719 c15 -8 16 -13 6 -29 -11 -16 -9 -23 6 -37 18 -17 18 -17 6
6 -9 17 -9 26 -1 34 8 8 11 7 11 -3 0 -13 2 -13 10 0 14 22 12 33 -5 27 -8 -4
-17 -2 -20 3 -4 6 -12 10 -18 10 -7 0 -4 -5 5 -11z"/>
<path d="M1273 2295 c-59 -25 -72 -93 -27 -139 46 -45 61 -28 22 24 -18 24
-20 35 -12 58 8 22 16 28 46 30 30 3 40 -1 53 -21 17 -26 8 -71 -15 -79 -7 -2
-11 -12 -9 -22 4 -17 6 -17 31 3 54 43 41 128 -23 150 -18 6 -32 11 -33 11 -1
-1 -15 -7 -33 -15z"/>
<path d="M2013 2293 c13 -3 17 -15 17 -54 0 -31 4 -48 10 -44 6 3 10 26 10 50
0 33 4 45 18 48 9 3 -3 5 -28 5 -25 0 -37 -2 -27 -5z"/>
<path d="M2160 2245 c0 -30 5 -55 10 -55 6 0 10 7 10 17 0 15 1 15 18 0 26
-23 39 -21 18 2 -15 16 -16 23 -5 43 12 23 12 23 -10 4 -21 -19 -21 -19 -21
12 0 18 -4 32 -10 32 -5 0 -10 -25 -10 -55z"/>
<path d="M2885 2283 c-4 -10 -8 -35 -9 -56 -1 -33 1 -37 24 -36 14 0 19 3 13
6 -7 2 -13 17 -13 33 0 16 6 31 13 33 10 4 10 6 0 6 -19 1 -16 19 5 24 13 4
12 5 -4 6 -12 0 -25 -7 -29 -16z"/>
<path d="M3061 2248 c0 -32 2 -58 7 -58 4 0 6 19 4 43 -5 70 -10 76 -11 15z"/>
<path d="M3140 2285 c0 -8 -9 -15 -20 -15 -13 0 -22 -9 -26 -25 -9 -37 2 -55
31 -53 23 2 25 6 25 55 0 29 -2 53 -5 53 -3 0 -5 -7 -5 -15z m-2 -52 c-3 -30
-23 -41 -31 -18 -9 21 2 45 20 45 10 0 13 -9 11 -27z"/>
<path d="M3660 2285 c0 -8 -6 -15 -14 -15 -22 0 -39 -28 -32 -54 5 -20 12 -24
36 -24 29 1 30 2 29 55 -1 29 -6 53 -10 53 -5 0 -9 -7 -9 -15z m-2 -52 c-4
-31 -23 -42 -30 -16 -7 25 1 43 18 43 11 0 14 -8 12 -27z"/>
<path d="M2113 2263 c20 -5 23 -23 4 -23 -19 0 -36 -20 -30 -36 8 -21 59 -18
61 4 2 41 -8 62 -31 61 -17 -1 -18 -2 -4 -6z m17 -42 c0 -12 -20 -25 -27 -18
-7 7 6 27 18 27 5 0 9 -4 9 -9z"/>
<path d="M2243 2230 c0 -25 2 -35 4 -22 2 12 2 32 0 45 -2 12 -4 2 -4 -23z"/>
<path d="M2281 2226 l2 -41 6 35 c4 22 12 35 21 35 9 0 18 -13 22 -35 l6 -35
-1 40 c-2 36 -5 40 -29 41 -26 1 -28 -1 -27 -40z"/>
<path d="M2367 2263 c-4 -3 -7 -24 -7 -45 0 -31 3 -38 20 -38 27 0 25 -17 -2
-23 -16 -4 -13 -5 7 -4 36 2 42 30 8 35 -29 4 -29 14 -1 27 11 6 25 20 29 33
7 19 5 22 -20 22 -15 0 -31 -3 -34 -7z m33 -23 c0 -11 -7 -20 -15 -20 -15 0
-21 21 -8 33 12 13 23 7 23 -13z"/>
<path d="M2480 2250 c-15 -27 4 -60 33 -59 l22 0 -22 9 c-14 6 -23 18 -23 30
0 12 9 24 23 30 l22 9 -22 0 c-13 1 -27 -8 -33 -19z"/>
<path d="M2568 2263 c30 -6 28 -19 -4 -27 -35 -9 -29 -41 9 -42 26 -1 28 1 25
35 -3 30 -7 36 -28 38 -22 1 -22 1 -2 -4z m22 -42 c0 -14 -18 -23 -30 -16 -6
4 -8 11 -5 16 8 12 35 12 35 0z"/>
<path d="M2620 2231 c0 -23 4 -41 10 -41 11 0 10 69 -2 76 -4 3 -8 -13 -8 -35z"/>
<path d="M2681 2248 c-12 -33 4 -58 37 -57 27 1 27 1 3 8 -35 9 -39 31 -6 31
20 0 26 4 23 18 -5 27 -46 28 -57 0z m44 2 c3 -5 -3 -10 -15 -10 -12 0 -18 5
-15 10 3 6 10 10 15 10 5 0 12 -4 15 -10z"/>
<path d="M2804 2256 c-3 -8 -4 -25 -2 -38 2 -17 9 -23 28 -23 22 0 25 4 25 35
0 29 -4 36 -23 38 -13 2 -24 -3 -28 -12z m41 -26 c0 -27 -22 -39 -31 -16 -8
22 3 49 19 43 6 -2 12 -14 12 -27z"/>
<path d="M2990 2256 c-6 -8 -10 -25 -8 -38 2 -18 10 -23 33 -25 18 -1 22 1 8
3 -12 3 -24 12 -27 20 -4 10 3 14 24 14 32 0 37 9 18 28 -16 16 -33 15 -48 -2z
m40 -6 c0 -5 -7 -10 -15 -10 -8 0 -15 5 -15 10 0 6 7 10 15 10 8 0 15 -4 15
-10z"/>
<path d="M3182 2258 c-27 -27 -2 -74 35 -65 15 4 14 5 -3 6 -12 0 -24 8 -28
16 -4 11 2 15 25 15 24 0 30 4 25 16 -3 9 -6 18 -6 20 0 9 -37 3 -48 -8z m38
-8 c0 -5 -9 -10 -21 -10 -11 0 -17 5 -14 10 3 6 13 10 21 10 8 0 14 -4 14 -10z"/>
<path d="M3250 2228 c0 -21 5 -38 11 -38 7 0 9 9 6 21 -3 12 2 28 13 39 17 17
17 18 -6 16 -21 -1 -24 -6 -24 -38z"/>
<path d="M3317 2263 c-12 -12 -7 -33 7 -33 26 0 28 -20 4 -29 -23 -10 -22 -10
5 -10 20 -1 27 4 27 18 0 11 -9 23 -20 26 -27 8 -25 23 3 28 20 4 20 4 1 6
-11 0 -24 -2 -27 -6z"/>
<path d="M3420 2228 c0 -46 17 -51 22 -5 4 41 21 38 29 -5 l6 -33 4 35 c2 23
9 35 19 35 9 0 18 -13 22 -35 l6 -35 -1 40 -2 40 -52 1 -53 1 0 -39z"/>
<path d="M3563 2264 c23 -7 22 -20 -4 -27 -31 -8 -21 -41 14 -45 27 -3 28 -2
25 35 -3 32 -7 38 -28 40 -14 1 -18 0 -7 -3z m17 -49 c0 -8 -7 -15 -15 -15
-16 0 -20 12 -8 23 11 12 23 8 23 -8z"/>
<path d="M3700 2255 c-7 -8 -10 -25 -6 -40 5 -20 12 -25 34 -24 23 2 24 2 5 6
-32 6 -29 33 3 33 20 0 25 4 20 16 -3 9 -6 18 -6 20 0 11 -39 2 -50 -11z m45
-5 c3 -5 -3 -10 -14 -10 -12 0 -21 5 -21 10 0 6 6 10 14 10 8 0 18 -4 21 -10z"/>
<path d="M3822 2258 c-27 -27 -2 -74 35 -65 15 4 14 5 -3 6 -12 0 -24 8 -28
16 -4 11 2 15 25 15 24 0 30 4 25 16 -3 9 -6 18 -6 20 0 9 -37 3 -48 -8z m38
-8 c0 -5 -7 -10 -15 -10 -8 0 -15 5 -15 10 0 6 7 10 15 10 8 0 15 -4 15 -10z"/>
<path d="M3913 2264 c23 -7 22 -21 -3 -29 -11 -3 -20 -15 -20 -26 0 -15 6 -19
30 -17 29 2 31 5 28 38 -3 29 -7 35 -28 37 -14 1 -18 0 -7 -3z m17 -49 c0 -8
-4 -15 -9 -15 -13 0 -22 16 -14 24 11 11 23 6 23 -9z"/>
<path d="M3964 2258 c-4 -7 2 -18 14 -26 27 -17 28 -29 5 -36 -11 -3 -8 -4 7
-3 31 2 39 33 11 42 -26 8 -27 22 -3 28 13 4 12 5 -5 6 -12 0 -25 -4 -29 -11z"/>
<path d="M4041 2231 c-1 -41 0 -43 24 -38 33 6 28 -15 -6 -25 -22 -6 -21 -7 6
-5 29 2 30 3 31 57 1 30 0 43 -3 28 -2 -14 -11 -32 -18 -38 -16 -13 -20 -7
-28 40 -3 15 -5 7 -6 -19z"/>
<path d="M3408 133 c6 -2 18 -2 25 0 6 3 1 5 -13 5 -14 0 -19 -2 -12 -5z"/>
<path d="M4326 131 c-4 -5 3 -7 14 -4 23 6 26 13 6 13 -8 0 -17 -4 -20 -9z"/>
<path d="M4606 131 c-3 -4 6 -6 19 -3 14 2 25 6 25 8 0 8 -39 4 -44 -5z"/>
<path d="M3288 113 c7 -3 16 -2 19 1 4 3 -2 6 -13 5 -11 0 -14 -3 -6 -6z"/>
<path d="M3598 113 c7 -3 16 -2 19 1 4 3 -2 6 -13 5 -11 0 -14 -3 -6 -6z"/>
<path d="M3836 107 c3 -10 9 -15 12 -12 3 3 0 11 -7 18 -10 9 -11 8 -5 -6z"/>
<path d="M4151 94 c0 -11 3 -14 6 -6 3 7 2 16 -1 19 -3 4 -6 -2 -5 -13z"/>
<path d="M4600 95 c0 -8 9 -10 25 -7 14 2 25 6 25 7 0 1 -11 5 -25 7 -16 3
-25 1 -25 -7z"/>
<path d="M3403 93 c9 -2 23 -2 30 0 6 3 -1 5 -18 5 -16 0 -22 -2 -12 -5z"/>
<path d="M4328 93 c6 -2 18 -2 25 0 6 3 1 5 -13 5 -14 0 -19 -2 -12 -5z"/>
<path d="M4430 89 c0 -5 9 -9 20 -9 11 0 20 2 20 4 0 2 -9 6 -20 9 -11 3 -20
1 -20 -4z"/>
<path d="M3475 80 c-3 -6 1 -7 9 -4 18 7 21 14 7 14 -6 0 -13 -4 -16 -10z"/>
<path d="M4228 83 c7 -3 16 -2 19 1 4 3 -2 6 -13 5 -11 0 -14 -3 -6 -6z"/>
<path d="M4507 59 c7 -7 15 -10 18 -7 3 3 -2 9 -12 12 -14 6 -15 5 -6 -5z"/>
<path d="M4600 59 c0 -5 11 -9 25 -9 14 0 25 2 25 4 0 2 -11 6 -25 8 -14 3
-25 1 -25 -3z"/>
<path d="M4860 60 c-9 -6 -10 -10 -3 -10 6 0 15 5 18 10 8 12 4 12 -15 0z"/>
<path d="M4238 53 c7 -3 16 -2 19 1 4 3 -2 6 -13 5 -11 0 -14 -3 -6 -6z"/>
</g>
</svg>
