<?xml version="1.0" standalone="no"?>
<!DOCTYPE svg PUBLIC "-//W3C//DTD SVG 20010904//EN"
 "http://www.w3.org/TR/2001/REC-SVG-20010904/DTD/svg10.dtd">
<svg version="1.0" xmlns="http://www.w3.org/2000/svg"
 width="640.000000pt" height="360.000000pt" viewBox="0 0 640.000000 360.000000"
 preserveAspectRatio="xMidYMid meet">

<g transform="translate(0.000000,360.000000) scale(0.100000,-0.100000)"
fill="#000000" stroke="none">
<path d="M3485 2880 c3 -5 8 -10 11 -10 2 0 4 5 4 10 0 6 -5 10 -11 10 -5 0
-7 -4 -4 -10z"/>
<path d="M3665 2870 c3 -5 8 -10 11 -10 2 0 4 5 4 10 0 6 -5 10 -11 10 -5 0
-7 -4 -4 -10z"/>
<path d="M2913 2820 c-12 -25 -26 -60 -32 -79 l-11 -35 25 24 c28 26 48 79 43
112 -3 19 -7 16 -25 -22z"/>
<path d="M3674 2807 c-1 -23 1 -36 4 -29 3 10 8 8 18 -6 11 -16 12 -32 4 -71
-5 -28 -7 -65 -4 -81 4 -18 1 -36 -6 -45 -16 -20 -30 -19 -30 1 0 9 -5 14 -11
12 -6 -2 -10 -7 -9 -12 1 -5 -6 -14 -16 -19 -13 -7 -20 -6 -29 7 -7 9 -18 16
-25 16 -7 0 -10 8 -7 20 3 11 1 20 -4 20 -5 0 -9 6 -9 14 0 8 -5 18 -11 21 -7
5 -8 -8 -3 -41 11 -71 8 -116 -8 -128 -8 -6 -13 -18 -11 -26 3 -9 -4 -6 -15 7
-21 24 -34 21 -25 -4 4 -10 2 -14 -7 -11 -8 2 -18 20 -23 39 -16 65 -49 121
-63 107 -5 -6 25 -68 45 -91 13 -16 13 -19 1 -27 -11 -7 -12 -10 -2 -10 7 0
10 -5 7 -10 -4 -6 -15 -8 -24 -5 -10 3 -24 -1 -31 -10 -9 -11 -15 -12 -20 -5
-4 6 -7 -3 -7 -19 0 -26 3 -29 16 -19 13 10 13 9 -1 -6 -17 -20 -38 -14 -38
10 0 19 -6 18 -28 -4 -19 -19 -21 -24 -26 -78 -1 -17 -5 -35 -7 -40 -3 -5 -4
-20 -3 -33 1 -16 -5 -25 -17 -28 -21 -6 -25 -19 -9 -25 7 -2 6 -13 -2 -30 -14
-30 -28 -37 -28 -13 0 8 -5 15 -10 15 -7 0 -7 -6 0 -19 6 -12 6 -22 1 -25 -5
-4 -11 -1 -13 6 -3 8 -11 6 -29 -6 l-24 -18 25 8 c22 6 23 5 11 -10 -11 -13
-11 -16 0 -16 9 0 10 -3 4 -8 -5 -4 -11 -25 -12 -46 -2 -22 -9 -46 -17 -55 -7
-9 -16 -23 -19 -31 -4 -12 -6 -11 -6 3 -1 9 -6 17 -11 17 -6 0 -10 -6 -9 -12
3 -28 -2 -40 -15 -35 -10 4 -13 1 -10 -7 5 -14 -45 -56 -66 -56 -7 0 -26 -11
-42 -26 -17 -14 -37 -23 -44 -20 -8 3 -25 -10 -40 -30 -23 -30 -31 -34 -58
-29 -24 4 -27 3 -11 -4 18 -9 17 -10 -12 -22 -18 -8 -33 -16 -33 -20 0 -11
-70 -2 -85 11 -21 17 -65 22 -81 9 -11 -9 -18 -9 -26 -1 -17 17 -38 15 -38 -4
0 -14 -11 -15 -80 -10 -95 7 -111 14 -145 64 -18 26 -25 50 -25 85 0 33 -5 49
-15 53 -8 4 -15 12 -15 19 0 6 -9 20 -20 30 -11 10 -20 26 -20 37 0 10 -4 18
-9 18 -5 0 -9 10 -10 23 0 12 -2 40 -4 62 -4 45 17 145 32 154 21 13 16 80 -7
108 -13 16 -25 36 -29 46 -5 16 -7 16 -17 -5 -6 -12 -26 -27 -44 -32 -17 -5
-32 -14 -32 -21 0 -17 -60 -28 -77 -14 -17 15 -55 -16 -51 -41 2 -9 -3 -24
-11 -33 -17 -21 -45 -23 -38 -3 4 10 1 13 -7 10 -22 -9 -29 16 -11 36 16 18
16 18 -4 13 -14 -3 -21 -13 -21 -28 0 -13 -3 -31 -6 -40 -5 -11 0 -18 15 -22
11 -3 19 -9 16 -13 -3 -5 -1 -11 5 -15 5 -3 10 2 10 12 0 13 8 19 25 21 17 1
25 -3 25 -14 0 -13 -3 -14 -15 -4 -12 10 -16 9 -21 -3 -3 -9 -3 -21 1 -27 4
-6 -4 -10 -19 -10 -16 0 -26 -6 -26 -15 0 -8 -9 -15 -20 -15 -12 0 -20 7 -20
18 -1 16 -1 16 -11 0 -10 -19 15 -58 38 -58 7 0 0 -13 -15 -28 -23 -23 -31
-26 -49 -17 l-22 10 22 5 c14 4 23 15 25 30 l3 25 -22 -25 c-14 -16 -23 -21
-26 -12 -7 18 -21 15 -25 -5 -6 -26 50 -75 76 -67 20 6 21 6 3 -14 -18 -20
-18 -21 0 -31 17 -10 16 -10 -4 -11 -25 0 -31 -17 -10 -26 7 -2 14 -16 15 -30
1 -14 -2 -23 -8 -19 -6 3 -10 1 -10 -4 0 -6 -7 -11 -15 -11 -8 0 -15 -7 -15
-15 0 -11 -7 -14 -25 -11 -15 3 -25 0 -25 -7 0 -13 66 -77 79 -77 5 0 12 -10
15 -22 3 -13 22 -41 41 -63 19 -22 35 -42 35 -45 0 -9 -34 -35 -54 -43 -15 -6
-16 -10 -6 -22 9 -10 9 -15 1 -15 -6 0 -11 -5 -11 -11 0 -6 9 -8 20 -4 11 3
20 2 20 -3 0 -5 -18 -15 -40 -22 -50 -16 -51 -35 -4 -47 20 -4 44 -19 52 -31
15 -23 15 -23 -13 -16 -24 6 -27 4 -22 -10 4 -9 2 -16 -4 -16 -6 0 -7 -5 -3
-11 3 -6 0 -15 -7 -20 -10 -6 -5 -9 15 -9 28 0 55 -23 56 -47 0 -7 -4 -13 -10
-13 -5 0 -10 7 -10 15 0 12 -7 14 -27 9 -37 -9 -34 -9 -68 6 -16 7 -55 14 -85
14 -53 1 -55 0 -58 -27 -2 -16 2 -35 9 -43 9 -11 8 -14 -5 -14 -9 0 -19 -7
-22 -15 -4 -8 -13 -15 -20 -15 -24 0 -29 -31 -9 -46 17 -13 17 -14 2 -14 -9 0
-17 -5 -17 -12 0 -6 -7 -4 -18 5 -10 10 -24 17 -30 17 -6 0 -18 7 -26 16 -9 9
-36 16 -66 17 -88 4 -113 55 -70 144 14 29 21 71 25 148 3 58 12 122 20 141 8
19 12 34 9 34 -3 0 0 9 6 19 7 13 7 22 0 26 -15 10 -12 23 8 28 16 4 16 5 0 6
-18 1 -42 -32 -31 -43 3 -3 -1 -6 -10 -6 -10 0 -17 -7 -17 -15 0 -8 -4 -15
-10 -15 -5 0 -7 -7 -4 -15 4 -8 1 -15 -5 -15 -6 0 -11 -6 -11 -13 0 -8 -12
-32 -27 -53 -16 -22 -37 -56 -47 -77 -11 -20 -23 -37 -28 -37 -4 0 -8 -9 -8
-20 0 -12 -15 -35 -33 -53 -31 -30 -32 -31 -35 -9 -2 12 -10 22 -19 22 -11 0
-14 7 -9 28 5 20 4 23 -4 12 -8 -13 -10 -13 -10 1 0 28 -38 66 -72 73 -96 20
-97 20 -103 -7 -6 -24 -1 -42 40 -132 8 -16 16 -39 19 -50 3 -12 34 -46 68
-75 145 -128 214 -200 264 -277 56 -85 65 -113 39 -113 -18 0 -20 -16 -2 -23
9 -4 8 -8 -3 -16 -12 -9 -13 -13 -2 -20 8 -4 13 -10 12 -12 -6 -15 104 -253
130 -281 15 -16 18 -15 51 15 20 18 42 31 49 29 7 -3 10 0 7 5 -3 5 28 18 71
28 42 10 86 24 97 31 37 23 210 40 222 21 7 -12 -26 -39 -38 -31 -5 3 -9 -2
-9 -10 0 -22 32 -20 61 3 26 20 125 54 206 71 38 9 57 8 73 0 21 -11 21 -12 4
-31 -23 -25 -13 -24 44 5 26 13 62 27 80 31 18 4 36 13 39 21 3 8 9 11 14 8 5
-3 9 -1 9 4 0 14 46 23 75 16 26 -7 35 -24 11 -24 -7 0 -20 -7 -27 -17 -13
-15 -11 -16 12 -10 17 4 31 2 38 -7 12 -15 60 -10 76 8 24 27 88 46 153 46 47
0 63 -3 52 -10 -12 -8 -9 -10 13 -10 15 0 27 5 27 10 0 6 9 10 20 10 11 0 19
-5 18 -11 -2 -6 6 -16 16 -22 52 -32 68 -67 32 -67 -42 0 -42 -19 -2 -50 18
-14 19 -13 13 3 -6 15 -3 18 16 15 15 -2 21 -9 20 -23 -2 -21 16 -60 24 -52 2
3 18 1 34 -3 31 -9 49 4 30 23 -17 17 -13 27 13 27 13 0 26 -6 29 -14 7 -18
52 -26 155 -29 86 -2 104 6 50 22 -18 5 -26 10 -18 11 11 1 10 3 -3 9 -17 6
-17 8 3 26 12 11 21 15 20 10 -5 -21 1 -29 10 -15 5 8 10 10 10 4 0 -7 10 -9
25 -6 17 3 27 -1 31 -12 3 -9 10 -13 15 -10 5 3 9 1 9 -4 0 -6 11 -13 25 -16
14 -4 25 -10 25 -15 0 -5 -10 -7 -21 -4 -19 5 -20 3 -10 -14 13 -25 60 -37 68
-17 10 27 23 14 24 -23 1 -21 3 -30 6 -20 2 9 8 17 12 17 14 0 40 57 34 78 -4
16 -13 22 -34 22 -22 0 -27 4 -22 16 4 12 8 13 13 3 7 -10 14 -10 39 1 23 9
34 10 45 1 7 -6 29 -9 48 -7 33 4 34 4 30 -26 -3 -21 -1 -29 7 -27 7 3 12 8
11 13 -1 5 4 12 11 17 8 4 12 23 11 43 -2 20 2 36 8 36 5 0 9 -4 8 -8 -5 -13
25 -82 34 -82 5 0 19 -10 32 -22 24 -24 80 -36 90 -20 3 6 20 7 38 3 32 -7 33
-7 33 23 0 44 -26 105 -47 112 -25 8 -23 24 3 24 17 0 20 5 17 25 -3 14 -1 28
4 31 5 3 4 12 -3 20 -16 20 -28 17 -22 -5 3 -10 0 -22 -6 -25 -17 -11 -28 54
-17 101 10 44 -2 73 -30 73 -7 0 -16 16 -20 35 -7 38 -12 41 -17 9 -5 -33 -31
-84 -42 -81 -15 5 -24 64 -12 76 16 16 -4 14 -41 -5 -23 -11 -32 -23 -33 -42
-2 -29 -4 -58 -7 -80 -1 -8 -8 -12 -14 -9 -7 2 -24 -6 -38 -19 -14 -12 -44
-27 -68 -32 -37 -9 -44 -8 -53 9 -8 16 -4 25 27 54 20 19 45 35 55 35 10 0 21
5 24 10 4 6 21 17 38 25 29 14 30 15 5 10 -14 -3 -33 -8 -42 -11 -11 -4 -16 0
-17 12 -2 25 -2 26 6 47 5 12 2 17 -9 17 -9 0 -16 4 -16 9 0 10 25 32 31 27 2
-2 4 9 5 25 1 15 -3 26 -7 23 -5 -3 -9 -11 -9 -18 0 -7 -9 -23 -20 -36 -11
-13 -20 -21 -20 -18 0 2 -20 -15 -45 -39 -51 -48 -75 -55 -75 -20 0 40 12 68
26 63 9 -4 14 2 14 15 0 16 4 19 18 14 12 -4 14 -3 6 5 -12 12 -47 3 -39 -10
3 -4 -11 -11 -30 -14 -19 -4 -35 -11 -35 -15 0 -15 -70 -23 -85 -11 -8 7 -20
10 -27 7 -8 -4 -7 -6 5 -6 9 -1 17 -6 17 -12 0 -7 -12 -9 -35 -5 -28 6 -35 4
-35 -9 0 -12 -6 -15 -20 -10 -24 8 -26 -7 -4 -40 14 -22 15 -25 1 -25 -9 0
-17 -6 -19 -14 -6 -27 -41 10 -40 43 l1 29 -52 -14 c-128 -35 -198 -21 -251
49 -68 89 -71 191 -10 308 28 53 37 83 39 127 3 69 24 121 71 179 46 56 151
136 166 127 6 -4 8 -3 5 3 -4 7 9 10 38 9 33 -1 44 2 40 11 -3 8 4 13 18 13
44 0 66 -12 76 -41 5 -16 15 -29 22 -29 16 0 1 -15 -14 -15 -7 0 -11 -8 -9
-18 3 -19 -14 -23 -21 -4 -3 9 -9 7 -24 -6 -12 -10 -27 -15 -37 -11 -12 5 -15
2 -10 -10 4 -11 -2 -19 -19 -25 -14 -5 -28 -15 -32 -21 -3 -5 -10 -8 -15 -5
-4 3 -13 -2 -20 -10 -7 -8 -17 -15 -23 -15 -15 0 -87 -51 -87 -61 0 -5 27 9
61 31 33 21 77 44 97 50 20 7 52 18 70 27 19 8 60 19 93 23 64 9 116 23 166
46 17 8 44 14 60 14 15 0 66 20 113 45 47 25 113 59 148 77 50 26 62 37 58 52
-4 16 21 56 31 49 2 -2 13 -3 26 -3 l22 1 -23 12 c-34 20 -8 37 57 38 31 0 50
3 44 6 -7 2 -13 9 -13 14 0 4 8 5 17 2 15 -6 16 -5 3 9 -11 11 -21 13 -38 7
-13 -5 -29 -6 -35 -2 -7 4 -24 6 -38 5 -19 -2 -28 3 -37 23 -7 14 -17 23 -22
20 -6 -3 -10 -4 -10 -1 0 3 10 10 21 17 15 8 19 8 15 0 -11 -17 10 -13 24 4
10 12 10 15 -4 15 -9 0 -16 5 -16 10 0 6 6 10 14 10 7 0 19 7 26 15 7 8 23 15
36 15 34 0 37 15 3 18 -18 1 -36 -5 -49 -18 -16 -16 -30 -20 -66 -17 -50 5
-65 13 -40 23 9 3 13 10 10 15 -3 5 -10 7 -15 4 -5 -4 -9 -1 -9 5 0 7 7 10 15
7 7 -3 24 2 36 12 l22 18 -27 7 c-15 4 -31 4 -36 1 -9 -5 -60 50 -60 66 0 13
18 11 23 -3 4 -10 6 -10 6 0 1 6 8 12 16 12 8 0 15 7 15 15 0 17 16 20 24 6 4
-5 0 -11 -6 -14 -7 -2 -10 -8 -6 -12 9 -10 68 40 84 71 11 20 10 24 -1 24 -8
0 -21 -10 -30 -22 l-17 -23 7 23 c4 14 2 22 -5 22 -8 0 -7 8 4 25 21 32 20 36
-6 30 -13 -3 -38 -7 -56 -8 -17 -2 -35 -7 -39 -10 -17 -17 -24 -4 -9 17 10 15
12 27 6 31 -6 3 -10 1 -10 -4 0 -20 -16 -11 -17 9 -1 13 9 25 27 35 36 19 57
52 41 68 -8 8 -11 6 -11 -6 0 -9 -4 -17 -10 -17 -5 0 -10 14 -10 31 0 24 4 30
15 25 12 -4 15 3 14 32 -2 30 -3 32 -6 10 -2 -16 -8 -28 -13 -28 -5 0 -7 9 -5
19 5 25 -5 61 -16 61 -5 0 -9 -10 -9 -22 0 -17 -3 -19 -9 -10 -7 12 -12 12
-30 1 -22 -15 -28 -29 -10 -29 5 0 7 -5 3 -12 -10 -16 -14 -62 -4 -52 4 5 10
18 12 29 4 22 30 28 34 7 1 -7 0 -8 -3 -2 -5 12 -23 4 -23 -11 0 -5 7 -9 15
-9 18 0 19 -11 4 -43 -9 -21 -17 -24 -43 -21 -23 4 -27 2 -16 -5 8 -6 13 -11
10 -12 -61 -10 -71 -5 -47 20 10 11 9 13 -3 9 -12 -4 -15 5 -17 40 -1 27 3 49
9 53 8 5 12 34 11 79 -1 52 1 69 10 63 6 -4 2 6 -11 21 -12 16 -22 35 -22 42
0 8 -4 14 -10 14 -5 0 -10 5 -10 11 0 13 -40 48 -55 49 -5 0 -10 -19 -11 -43z
m181 -397 c3 -5 2 -10 -4 -10 -6 0 -9 -6 -7 -12 1 -7 1 -10 -1 -5 -8 14 -25 7
-19 -8 3 -8 1 -15 -4 -15 -6 0 -10 6 -10 14 0 8 -8 17 -17 19 -11 3 -7 5 10 6
16 0 26 5 22 11 -3 6 1 10 9 10 8 0 18 -4 21 -10z m-1805 -94 c0 -11 -19 -15
-25 -6 -3 5 1 10 9 10 9 0 16 -2 16 -4z m1565 -16 c6 -5 14 -8 17 -5 2 3 26
-16 51 -41 47 -46 77 -114 77 -175 0 -15 9 -46 20 -70 22 -49 26 -129 8 -147
-7 -7 -21 -12 -32 -12 -20 0 -20 0 0 15 17 13 17 14 2 15 -9 0 -20 -4 -23 -10
-3 -5 -17 -10 -30 -10 -18 0 -22 -4 -18 -20 5 -20 33 -29 33 -10 0 6 7 10 15
10 23 0 19 -47 -5 -60 -16 -9 -22 -8 -26 5 -3 8 -10 12 -15 9 -5 -3 -6 1 -4 9
8 20 -40 71 -60 64 -9 -4 -13 -11 -10 -17 3 -5 2 -10 -4 -10 -5 0 -12 6 -14
13 -3 6 -6 2 -6 -11 -1 -14 -6 -22 -13 -19 -7 2 -12 11 -12 20 1 9 -4 13 -12
10 -25 -9 -114 63 -114 92 0 9 -9 15 -21 15 -27 0 -61 41 -48 57 14 16 0 63
-20 64 -14 1 -13 2 2 6 19 5 22 38 7 77 -8 21 -5 33 13 60 12 18 27 41 32 50
23 38 173 57 210 26z m311 -18 c-8 -8 -59 -10 -71 -3 -5 3 6 8 25 12 36 5 56
2 46 -9z m64 -17 c0 -5 -5 -3 -10 5 -5 8 -10 20 -10 25 0 6 5 3 10 -5 5 -8 10
-19 10 -25z m-147 -1 c12 -12 -5 -32 -24 -27 -15 4 -17 8 -8 19 12 15 22 17
32 8z m37 -24 c0 -5 -5 -10 -11 -10 -5 0 -7 5 -4 10 3 6 8 10 11 10 2 0 4 -4
4 -10z m5 -50 c3 -5 1 -10 -4 -10 -6 0 -11 5 -11 10 0 6 2 10 4 10 3 0 8 -4
11 -10z m110 -160 c-3 -5 -10 -10 -16 -10 -5 0 -9 5 -9 10 0 6 7 10 16 10 8 0
12 -4 9 -10z m-2095 -24 c0 -11 -19 -15 -25 -6 -3 5 1 10 9 10 9 0 16 -2 16
-4z m107 -161 c36 0 53 -5 70 -22 20 -19 21 -26 12 -53 -6 -17 -14 -29 -17
-26 -3 3 -12 0 -20 -7 -8 -6 -27 -12 -41 -13 -14 0 -33 -4 -43 -8 -12 -5 -21
1 -34 22 -9 17 -22 28 -28 26 -6 -2 -20 3 -31 12 -15 11 -17 18 -9 32 6 9 20
19 30 21 10 2 25 12 33 23 11 17 15 18 22 6 5 -9 24 -14 56 -13z m796 -218
c31 -11 55 -22 52 -25 -3 -3 9 -12 27 -20 25 -11 29 -16 16 -19 -28 -7 -22
-33 7 -33 14 0 25 -2 25 -4 0 -2 3 -12 7 -21 5 -14 2 -16 -18 -10 -13 4 -37
18 -52 31 -16 13 -33 24 -39 24 -6 0 -36 26 -67 57 -31 31 -47 53 -36 48 11
-4 46 -17 78 -28z m-58 -27 c3 -5 -1 -10 -9 -10 -8 0 -18 5 -21 10 -3 6 1 10
9 10 8 0 18 -4 21 -10z m-300 -30 c-3 -11 -7 -35 -7 -52 -1 -35 -15 -61 -28
-53 -5 3 -11 1 -15 -5 -10 -16 -25 -2 -25 23 0 12 7 41 16 64 13 34 22 43 41
43 20 0 23 -4 18 -20z m-105 -292 c0 -5 -4 -6 -10 -3 -13 8 -13 -1 1 -27 10
-18 9 -20 -5 -15 -14 6 -15 3 -5 -14 8 -16 8 -20 -1 -14 -13 8 -39 -22 -40
-47 0 -10 -4 -18 -9 -18 -5 0 -11 -10 -13 -22 -2 -13 -9 -22 -17 -20 -8 2 -11
-3 -8 -11 3 -8 0 -20 -6 -27 -16 -16 78 -4 108 14 11 6 27 11 35 10 8 0 22 -2
31 -2 23 -3 33 -48 15 -73 -10 -15 -15 -17 -19 -7 -4 9 -6 7 -6 -4 -1 -10 -8
-18 -16 -18 -8 0 -22 -11 -31 -24 -9 -15 -21 -22 -30 -19 -8 3 -14 0 -14 -6 0
-6 5 -11 10 -11 6 0 10 -4 10 -10 0 -5 -7 -10 -15 -10 -8 0 -15 -5 -15 -11 0
-7 -11 -8 -31 -4 -22 5 -29 4 -25 -4 4 -7 0 -11 -11 -11 -11 0 -24 -5 -31 -12
-6 -6 -26 -12 -44 -13 -44 -4 -68 -14 -68 -31 0 -8 -10 -14 -25 -14 -14 0 -25
-5 -25 -10 0 -6 -16 -9 -37 -6 -21 2 -44 -1 -50 -6 -22 -18 -118 -14 -137 5
-13 12 -14 17 -4 18 7 0 4 4 -7 9 -19 9 -19 9 3 16 12 3 25 17 28 30 4 13 14
24 23 24 15 0 51 32 51 45 0 3 6 13 14 22 8 10 40 50 71 89 56 71 74 84 128
84 15 0 27 5 27 10 0 6 6 10 13 10 7 0 21 12 32 27 35 47 91 103 104 103 7 0
10 4 7 9 -7 11 14 20 32 13 6 -2 12 -8 12 -14z m-680 -72 c0 -11 -19 -15 -25
-6 -3 5 1 10 9 10 9 0 16 -2 16 -4z m940 -90 c0 -28 -62 -58 -75 -36 -3 6 4
10 17 10 22 1 22 1 3 12 -19 12 -18 13 10 19 45 10 45 10 45 -5z m-92 -14 c2
-7 -5 -12 -17 -12 -14 0 -19 5 -14 15 6 17 25 15 31 -3z m347 -212 c9 -15 -17
-70 -33 -70 -7 0 -24 -7 -37 -16 -14 -9 -32 -13 -42 -9 -16 6 -16 8 5 24 23
17 21 31 -6 31 -8 0 -35 -16 -59 -36 -52 -42 -68 -39 -27 6 51 56 180 101 199
70z m855 -13 c0 -8 -12 -20 -27 -27 -16 -8 -35 -22 -43 -32 -10 -11 -31 -19
-58 -20 -41 -1 -69 10 -44 19 6 3 12 11 12 19 0 16 17 19 22 4 3 -11 41 3 98
35 32 18 40 18 40 2z m-1473 -33 c-3 -3 -12 -4 -19 -1 -8 3 -5 6 6 6 11 1 17
-2 13 -5z m1548 -74 c3 -5 1 -10 -4 -10 -6 0 -11 5 -11 10 0 6 2 10 4 10 3 0
8 -4 11 -10z m-569 -155 c-11 -8 -22 -12 -25 -9 -6 6 19 24 34 24 6 -1 1 -7
-9 -15z m24 -35 c18 -12 2 -12 -25 0 -13 6 -15 9 -5 9 8 0 22 -4 30 -9z m70 6
c0 -2 -7 -6 -15 -10 -8 -3 -15 -1 -15 4 0 6 7 10 15 10 8 0 15 -2 15 -4z m320
-50 c0 -3 -4 -8 -10 -11 -5 -3 -10 -1 -10 4 0 6 5 11 10 11 6 0 10 -2 10 -4z"/>
<path d="M3740 1916 c0 -24 17 -28 23 -6 3 13 0 20 -9 20 -8 0 -14 -6 -14 -14z"/>
<path d="M3603 2806 c1 -16 9 -32 17 -34 12 -4 13 -2 4 9 -7 8 -14 23 -17 34
-4 13 -5 9 -4 -9z"/>
<path d="M4435 2781 c13 -13 57 -31 115 -46 136 -37 175 -65 256 -185 53 -80
62 -127 41 -230 -19 -89 -12 -163 26 -320 39 -160 40 -164 3 -368 -4 -18 -15
-43 -26 -55 -23 -24 -44 -92 -36 -113 4 -9 22 -14 55 -14 47 0 54 4 125 66 72
64 100 98 143 175 26 45 23 163 -5 259 -11 36 -25 85 -32 110 -7 25 -27 77
-45 115 -18 39 -45 102 -58 141 -102 286 -203 383 -477 458 -30 8 -66 18 -80
22 l-25 7 20 -22z"/>
<path d="M3972 2754 c-19 -21 -6 -51 26 -57 34 -7 39 -2 18 18 -9 9 -16 23
-16 30 0 21 -13 25 -28 9z m18 -30 c0 -8 -5 -12 -10 -9 -6 4 -8 11 -5 16 9 14
15 11 15 -7z"/>
<path d="M3603 2727 c0 -7 12 -13 26 -14 14 -1 19 1 11 4 -8 3 -20 10 -26 14
-6 5 -11 4 -11 -4z"/>
<path d="M3621 2668 c2 -18 5 -37 8 -42 7 -15 18 25 13 51 -7 35 -24 27 -21
-9z"/>
<path d="M2820 2666 c-6 -9 -10 -21 -8 -28 3 -8 9 -4 17 10 15 28 9 39 -9 18z"/>
<path d="M3430 2631 c0 -6 4 -13 10 -16 6 -3 7 1 4 9 -7 18 -14 21 -14 7z"/>
<path d="M3981 2536 c-6 -7 -9 -21 -5 -30 3 -9 1 -16 -5 -16 -6 0 -11 -8 -11
-17 0 -32 32 11 34 46 2 36 2 36 -13 17z"/>
<path d="M3940 2439 c0 -5 5 -7 10 -4 6 3 10 8 10 11 0 2 -4 4 -10 4 -5 0 -10
-5 -10 -11z"/>
<path d="M5760 2420 c0 -5 5 -10 11 -10 5 0 7 5 4 10 -3 6 -8 10 -11 10 -2 0
-4 -4 -4 -10z"/>
<path d="M5715 2410 c-3 -5 3 -10 14 -10 12 0 21 5 21 10 0 6 -6 10 -14 10 -8
0 -18 -4 -21 -10z"/>
<path d="M5852 2405 c-17 -19 -1 -19 24 0 14 11 15 14 4 14 -8 0 -21 -6 -28
-14z"/>
<path d="M1620 2371 c-23 -46 -24 -50 -10 -87 l11 -28 14 28 c19 36 19 40 -1
32 -9 -3 -12 -2 -8 5 3 6 15 9 25 6 14 -4 19 0 19 13 0 11 -4 21 -10 25 -5 3
-7 12 -4 19 3 8 1 17 -5 20 -6 4 -19 -11 -31 -33z"/>
<path d="M5688 2383 c6 -2 18 -2 25 0 6 3 1 5 -13 5 -14 0 -19 -2 -12 -5z"/>
<path d="M5805 2380 c-3 -5 1 -10 9 -10 9 0 16 5 16 10 0 6 -4 10 -9 10 -6 0
-13 -4 -16 -10z"/>
<path d="M5729 2361 c-13 -9 -27 -20 -30 -25 -4 -5 -11 -6 -17 -2 -5 3 -25 -1
-43 -9 -19 -8 -28 -14 -21 -15 6 0 12 -5 12 -10 0 -7 -6 -7 -20 0 -16 9 -20 8
-20 -5 0 -8 -4 -15 -10 -15 -5 0 -10 -4 -10 -9 0 -6 10 -7 23 -4 12 3 33 6 45
7 13 2 28 9 32 17 5 7 12 11 15 7 3 -3 -1 -13 -10 -21 -17 -18 -20 -37 -5 -37
18 0 10 -29 -10 -35 -25 -8 -26 -35 -2 -35 10 0 33 11 52 25 19 14 40 25 47
25 24 0 13 25 -12 26 -14 1 -22 -2 -19 -7 3 -5 -5 -9 -17 -9 -22 0 -21 1 4 23
15 12 27 29 27 36 0 10 -3 11 -14 2 -11 -9 -16 -9 -21 0 -9 13 48 71 66 67 6
-2 13 2 15 7 6 16 -30 13 -57 -4z m-54 -41 c-3 -5 -14 -10 -23 -9 -14 0 -13 2
3 9 27 11 27 11 20 0z"/>
<path d="M5880 2365 c-14 -8 -32 -14 -41 -15 -23 0 -32 -28 -11 -32 20 -4 112
39 112 52 0 14 -31 12 -60 -5z"/>
<path d="M5576 2347 c-6 -23 4 -40 11 -19 3 6 11 12 19 12 21 0 17 17 -5 23
-14 3 -21 -2 -25 -16z"/>
<path d="M4196 2322 c-3 -4 4 -13 14 -20 11 -6 21 -8 24 -4 3 4 -4 13 -14 20
-11 6 -21 8 -24 4z"/>
<path d="M4247 2319 c7 -7 15 -10 18 -7 3 3 -2 9 -12 12 -14 6 -15 5 -6 -5z"/>
<path d="M5930 2320 c-12 -8 -11 -10 8 -10 12 0 22 5 22 10 0 13 -11 13 -30 0z"/>
<path d="M1723 2300 c-1 -12 4 -20 13 -20 8 0 17 -7 20 -15 4 -8 10 -15 14
-15 4 0 0 16 -8 35 -18 39 -37 46 -39 15z"/>
<path d="M5458 2303 c-26 -7 -22 -20 7 -25 19 -4 25 -1 25 13 0 19 -2 20 -32
12z"/>
<path d="M5875 2300 c-3 -5 -14 -10 -24 -10 -9 0 -27 -11 -39 -25 l-22 -25 25
0 c14 0 25 4 25 9 0 6 14 18 30 28 29 17 39 33 21 33 -6 0 -13 -4 -16 -10z"/>
<path d="M4164 2284 c3 -7 -2 -18 -10 -24 -8 -7 -14 -17 -14 -23 0 -7 4 -7 12
1 14 14 32 16 24 3 -3 -5 9 -8 27 -7 26 2 31 6 29 22 -5 25 -12 32 -12 11 0
-9 -4 -17 -10 -17 -5 0 -10 10 -10 23 0 16 -6 23 -20 23 -12 0 -19 -5 -16 -12z"/>
<path d="M4116 2275 c-4 -13 -2 -14 14 -5 23 13 26 20 6 20 -8 0 -16 -7 -20
-15z"/>
<path d="M4254 2255 c3 -14 -2 -31 -10 -39 -8 -8 -14 -19 -14 -24 0 -16 -39
-54 -48 -48 -10 6 -26 -23 -18 -32 12 -11 54 10 61 30 l8 23 4 -22 c2 -13 10
-20 17 -17 16 6 40 -21 31 -36 -4 -6 -20 -9 -36 -6 -19 3 -27 1 -22 -7 4 -7 0
-8 -12 -4 -9 4 -23 3 -29 -2 -6 -5 -20 -11 -31 -15 -11 -3 -7 -4 9 -2 36 5 79
-13 72 -29 -3 -8 4 -11 17 -10 12 1 29 3 37 4 13 1 13 3 1 10 -11 7 -3 12 27
22 23 7 42 16 42 21 0 11 -7 10 -30 -4 -10 -7 -23 -8 -27 -4 -4 5 -2 11 5 13
9 4 10 9 3 17 -11 13 -3 59 8 52 4 -3 13 -1 21 5 16 10 20 9 -47 12 -26 2 -29
0 -20 -12 10 -12 9 -12 -10 -2 -24 12 -32 51 -10 51 6 0 23 12 37 27 25 26 25
26 3 21 -18 -5 -23 -2 -23 13 0 10 -5 19 -10 19 -6 0 -8 -11 -6 -25z m16 -196
c0 -5 -7 -9 -15 -9 -8 0 -15 7 -15 15 0 9 6 12 15 9 8 -4 15 -10 15 -15z"/>
<path d="M1836 2243 c-6 -14 -5 -15 5 -6 7 7 10 15 7 18 -3 3 -9 -2 -12 -12z"/>
<path d="M5458 2253 c6 -2 12 -11 12 -19 0 -8 5 -14 11 -14 6 0 8 7 5 16 -3 9
-6 18 -6 20 0 2 -8 4 -17 3 -11 0 -13 -3 -5 -6z"/>
<path d="M4050 2220 c-23 -19 -29 -29 -19 -30 8 0 28 14 44 30 37 39 20 39
-25 0z"/>
<path d="M4373 2216 c-16 -15 -21 -28 -17 -44 6 -21 34 -32 34 -12 0 6 -4 10
-10 10 -15 0 -12 21 7 42 23 26 12 29 -14 4z"/>
<path d="M5830 2230 c-8 -5 -12 -12 -9 -15 8 -8 39 5 39 16 0 11 -11 11 -30
-1z"/>
<path d="M4097 2210 c-9 -11 -13 -20 -8 -20 11 0 35 29 29 35 -2 2 -12 -4 -21
-15z"/>
<path d="M5355 2219 c-4 -6 -5 -12 -2 -15 2 -3 7 2 10 11 7 17 1 20 -8 4z"/>
<path d="M4410 2204 c0 -8 5 -12 10 -9 6 4 8 11 5 16 -9 14 -15 11 -15 -7z"/>
<path d="M4185 2201 c-6 -11 9 -23 19 -14 9 9 7 23 -3 23 -6 0 -12 -4 -16 -9z"/>
<path d="M5790 2200 c0 -5 5 -10 10 -10 6 0 10 5 10 10 0 6 -4 10 -10 10 -5 0
-10 -4 -10 -10z"/>
<path d="M5511 2191 c-7 -5 -10 -14 -7 -20 5 -8 11 -7 22 3 24 24 14 35 -15
17z"/>
<path d="M4285 2180 c4 -6 11 -8 16 -5 14 9 11 15 -7 15 -8 0 -12 -5 -9 -10z"/>
<path d="M4035 2170 c-3 -5 -2 -10 4 -10 5 0 13 5 16 10 3 6 2 10 -4 10 -5 0
-13 -4 -16 -10z"/>
<path d="M1755 2160 c4 -6 11 -7 17 -4 6 4 14 0 19 -7 4 -7 11 -10 14 -7 12
12 -6 28 -31 28 -15 0 -23 -4 -19 -10z"/>
<path d="M5355 2150 c-3 -5 -2 -10 4 -10 5 0 13 5 16 10 3 6 2 10 -4 10 -5 0
-13 -4 -16 -10z"/>
<path d="M4125 2140 c3 -5 12 -7 20 -3 21 7 19 13 -6 13 -11 0 -18 -4 -14 -10z"/>
<path d="M5492 2128 c4 -27 34 -28 75 -1 21 14 23 19 11 21 -9 2 -28 -4 -42
-14 -24 -15 -31 -13 -27 9 0 4 -4 7 -10 7 -6 0 -9 -10 -7 -22z"/>
<path d="M4390 2131 c0 -6 4 -13 10 -16 6 -3 7 1 4 9 -7 18 -14 21 -14 7z"/>
<path d="M4337 2123 c-9 -2 -15 -9 -12 -14 9 -14 22 -11 29 6 3 8 4 14 3 14
-1 -1 -10 -3 -20 -6z"/>
<path d="M5520 2070 c0 -11 -5 -20 -12 -20 -6 0 -9 -3 -5 -6 6 -6 77 33 77 42
0 2 -13 4 -30 4 -23 0 -30 -4 -30 -20z"/>
<path d="M4080 2015 c-11 -13 -10 -14 4 -9 9 3 16 10 16 15 0 13 -6 11 -20 -6z"/>
<path d="M3062 1985 c10 -23 12 -23 24 -7 15 20 9 32 -16 32 -17 0 -18 -3 -8
-25z"/>
<path d="M2265 1990 c3 -5 8 -10 11 -10 2 0 4 5 4 10 0 6 -5 10 -11 10 -5 0
-7 -4 -4 -10z"/>
<path d="M6056 1991 c-4 -7 -5 -15 -2 -18 9 -9 19 4 14 18 -4 11 -6 11 -12 0z"/>
<path d="M2276 1955 c4 -8 8 -15 10 -15 2 0 4 7 4 15 0 8 -4 15 -10 15 -5 0
-7 -7 -4 -15z"/>
<path d="M6092 1951 c2 -7 7 -12 11 -12 12 1 9 15 -3 20 -7 2 -11 -2 -8 -8z"/>
<path d="M6035 1939 c-10 -16 3 -23 18 -11 8 7 17 9 20 5 4 -3 7 -1 7 5 0 15
-37 16 -45 1z"/>
<path d="M5270 1891 c0 -6 4 -13 10 -16 6 -3 7 1 4 9 -7 18 -14 21 -14 7z"/>
<path d="M5239 1793 c-12 -15 -12 -16 4 -10 10 4 23 7 28 7 5 0 9 5 9 10 0 16
-26 12 -41 -7z"/>
<path d="M3361 1694 c0 -11 3 -14 6 -6 3 7 2 16 -1 19 -3 4 -6 -2 -5 -13z"/>
<path d="M1853 1635 c-3 -9 -3 -18 0 -21 9 -9 27 6 27 22 0 19 -19 18 -27 -1z"/>
<path d="M4438 1629 c-22 -12 -23 -29 -4 -29 22 0 30 -19 16 -35 -17 -21 -30
-19 -30 5 0 11 -4 20 -10 20 -5 0 -10 -7 -10 -15 0 -8 -4 -15 -10 -15 -5 0
-10 -5 -10 -11 0 -6 -6 -17 -14 -24 -12 -12 -15 -12 -20 0 -6 17 -36 20 -36 4
0 -5 5 -7 12 -3 7 4 8 3 4 -4 -4 -7 -22 -12 -39 -13 -18 -1 -43 -5 -57 -10
-19 -6 -15 -7 15 -3 48 7 38 -9 -15 -24 l-35 -10 33 -1 c30 -1 32 -3 18 -16
-8 -8 -22 -12 -30 -9 -11 4 -16 1 -16 -10 0 -21 -16 -20 -29 2 -6 9 -11 13
-11 9 0 -4 -9 -3 -21 3 -11 7 -23 9 -26 6 -3 -3 6 -10 20 -15 18 -7 25 -16 23
-35 0 -14 -4 -26 -8 -26 -4 0 -5 -7 -1 -16 3 -9 0 -20 -8 -24 -7 -5 -10 -12
-6 -16 4 -4 16 2 27 14 15 16 31 21 71 20 28 0 56 5 62 11 15 15 27 14 27 -4
0 -8 -8 -15 -17 -16 -10 0 -2 -6 17 -14 28 -10 32 -14 18 -20 -10 -4 -18 -14
-18 -22 0 -10 -6 -13 -17 -8 -13 4 -15 3 -7 -5 7 -7 24 -3 60 16 27 15 51 29
53 30 2 2 -2 17 -9 34 -10 25 -10 34 -1 43 10 9 12 7 9 -12 -5 -36 24 -50 60
-29 24 14 29 15 29 3 0 -8 -6 -15 -14 -15 -7 0 -13 -4 -13 -10 0 -13 1 -13 39
6 18 9 28 20 24 26 -4 7 0 9 10 5 9 -3 18 0 21 9 3 8 1 14 -5 14 -5 0 -7 11
-3 26 5 18 1 29 -12 40 -18 15 -18 15 5 10 22 -4 23 -3 18 35 -3 22 -1 37 4
33 14 -9 10 10 -7 32 -11 13 -17 15 -20 7 -3 -7 -13 -13 -21 -13 -12 0 -13 3
-3 15 10 12 7 15 -17 22 -15 4 -34 6 -42 4 -9 -2 -12 4 -8 18 3 12 4 21 4 21
-1 0 -10 -5 -19 -11z m122 -123 c0 -3 -4 -8 -10 -11 -5 -3 -10 -1 -10 4 0 6 5
11 10 11 6 0 10 -2 10 -4z m-133 -58 c-3 -8 -6 -5 -6 6 -1 11 2 17 5 13 3 -3
4 -12 1 -19z m3 -18 c10 0 11 -3 4 -10 -12 -12 -47 -2 -38 11 3 5 0 9 -5 9 -6
0 -11 5 -11 12 0 6 7 4 18 -5 10 -10 25 -17 32 -17z m96 16 c9 -9 10 -17 4
-21 -9 -6 -40 17 -40 29 0 11 21 6 36 -8z m-53 -26 c3 -11 2 -20 -3 -20 -4 0
-10 9 -13 20 -3 11 -2 20 3 20 4 0 10 -9 13 -20z m-103 -39 c0 -6 -4 -13 -10
-16 -5 -3 -10 1 -10 9 0 9 5 16 10 16 6 0 10 -4 10 -9z m102 -13 c-9 -9 -42
-1 -42 12 0 4 12 5 26 2 15 -3 22 -8 16 -14z"/>
<path d="M4680 1444 c0 -7 -11 -25 -25 -40 -13 -14 -22 -30 -19 -35 3 -5 -2
-6 -10 -3 -9 4 -16 1 -16 -6 0 -7 -7 -10 -14 -7 -10 4 -13 1 -10 -7 3 -8 1
-17 -5 -21 -6 -3 -11 -1 -11 5 0 15 -80 -27 -87 -46 -3 -10 -8 -12 -12 -5 -4
6 -36 1 -91 -15 -47 -14 -102 -30 -122 -36 -21 -6 -36 -14 -33 -18 3 -4 36
-15 74 -25 57 -14 79 -15 123 -6 62 13 158 56 158 70 0 6 6 8 13 6 6 -3 35 16
64 43 44 40 53 55 61 99 9 49 8 51 -15 56 -14 3 -23 -1 -23 -9z"/>
<path d="M3890 1390 c0 -5 5 -10 11 -10 5 0 7 5 4 10 -3 6 -8 10 -11 10 -2 0
-4 -4 -4 -10z"/>
<path d="M3915 1371 c-3 -5 -2 -12 3 -15 5 -3 9 1 9 9 0 17 -3 19 -12 6z"/>
<path d="M4110 1371 c0 -6 5 -13 10 -16 6 -3 10 1 10 9 0 9 -4 16 -10 16 -5 0
-10 -4 -10 -9z"/>
<path d="M4070 1362 c0 -7 -7 -12 -15 -12 -8 0 -15 -5 -15 -11 0 -6 7 -8 16
-5 14 5 15 4 4 -9 -7 -8 -19 -15 -26 -15 -8 0 -14 -7 -14 -15 0 -8 5 -15 10
-15 6 0 10 5 10 10 0 6 5 10 11 10 5 0 7 -4 4 -10 -3 -5 1 -10 10 -10 9 0 14
4 11 9 -4 5 -1 22 4 37 8 19 8 30 0 38 -7 7 -10 6 -10 -2z"/>
<path d="M3975 1350 c-3 -5 1 -10 9 -10 9 0 16 5 16 10 0 6 -4 10 -9 10 -6 0
-13 -4 -16 -10z"/>
<path d="M3930 1330 c0 -29 16 -43 36 -31 17 9 17 10 2 11 -9 0 -22 8 -27 18
-8 13 -10 14 -11 2z"/>
<path d="M3350 1324 c0 -7 -9 -14 -20 -17 -29 -8 -16 -29 35 -56 31 -17 47
-32 51 -50 3 -14 9 -35 13 -46 7 -18 7 -77 1 -110 -5 -21 1 -35 13 -32 17 3
39 67 28 81 -5 6 -7 31 -4 54 3 29 -1 52 -11 67 -14 21 -14 23 5 28 27 7 15
27 -17 27 -13 0 -24 5 -24 11 0 5 -4 8 -9 5 -5 -4 -7 3 -4 13 4 16 1 19 -17
14 -13 -4 -26 0 -31 8 -5 8 -9 9 -9 3z"/>
<path d="M4224 1321 c5 -8 56 -3 56 5 0 2 -14 4 -31 4 -16 0 -28 -4 -25 -9z"/>
<path d="M3820 1295 c-10 -12 -10 -15 4 -15 9 0 16 -7 16 -15 0 -8 -7 -15 -15
-15 -8 0 -15 -5 -15 -11 0 -6 9 -9 20 -6 23 6 26 -3 8 -22 -11 -11 -10 -13 0
-7 7 5 20 -2 31 -15 l18 -23 18 21 c10 12 24 19 32 16 9 -4 11 0 7 11 -7 18
11 22 21 6 5 -8 11 -8 19 -1 7 6 16 8 19 4 4 -3 7 1 7 9 0 9 6 18 12 20 9 3 7
10 -6 23 -18 18 -19 18 -32 1 -7 -10 -10 -24 -7 -32 3 -8 0 -14 -6 -14 -6 0
-11 11 -11 25 0 32 -16 33 -24 1 -4 -16 -12 -23 -23 -22 -10 2 -12 1 -5 -1 16
-6 16 -23 -1 -23 -8 0 -19 11 -25 24 -9 19 -8 27 4 37 13 11 12 14 -8 25 -30
17 -43 17 -58 -1z m177 -37 c-3 -8 -6 -5 -6 6 -1 11 2 17 5 13 3 -3 4 -12 1
-19z"/>
<path d="M3254 1273 c4 -4 19 -8 34 -10 23 -2 24 -1 7 7 -24 11 -51 13 -41 3z"/>
<path d="M3760 1246 c0 -8 6 -16 13 -19 9 -3 8 -8 -3 -22 -8 -10 -10 -16 -4
-12 12 7 33 -32 35 -66 1 -20 2 -20 8 3 4 15 2 35 -6 50 -7 14 -13 35 -13 46
0 12 -7 24 -15 28 -9 3 -15 0 -15 -8z"/>
<path d="M4092 1189 c6 -4 8 -14 5 -24 -6 -13 -3 -15 16 -10 12 4 31 16 42 26
19 18 18 19 -28 17 -25 -1 -41 -5 -35 -9z"/>
<path d="M3991 1142 c-19 -10 -36 -24 -39 -32 -3 -13 -2 -13 7 0 9 12 11 11
11 -9 0 -16 4 -21 15 -17 8 3 15 0 16 -7 0 -7 7 6 15 27 8 22 13 43 12 47 -2
4 -18 0 -37 -9z"/>
<path d="M3970 1054 c0 -8 5 -12 10 -9 6 3 10 10 10 16 0 5 -4 9 -10 9 -5 0
-10 -7 -10 -16z"/>
<path d="M3646 1016 c7 -18 26 -17 30 2 1 7 0 8 -3 2 -3 -8 -9 -7 -19 1 -12
10 -13 9 -8 -5z"/>
<path d="M3335 991 c-3 -5 -30 -22 -61 -38 -63 -32 -53 -41 21 -19 38 12 51
13 57 3 6 -9 8 -8 9 3 1 8 1 18 0 23 0 4 4 7 9 7 6 0 10 7 10 15 0 16 -35 21
-45 6z"/>
<path d="M3418 983 c7 -3 16 -2 19 1 4 3 -2 6 -13 5 -11 0 -14 -3 -6 -6z"/>
<path d="M3646 945 c-23 -17 -40 -20 -31 -4 4 6 -2 5 -14 -3 l-21 -13 22 -8
c17 -6 28 -2 47 18 28 28 27 32 -3 10z"/>
<path d="M4211 876 c-6 -8 -25 -19 -41 -26 -30 -12 -44 -37 -15 -26 8 3 15 1
15 -4 0 -6 -6 -10 -14 -10 -21 0 -28 -17 -21 -50 4 -18 15 -32 28 -36 30 -9
37 -24 24 -46 -10 -15 -9 -21 3 -29 12 -9 12 -10 -3 -5 -10 3 -23 6 -28 6 -6
0 -15 14 -20 30 -12 32 -33 40 -43 15 -3 -8 -1 -15 5 -15 6 0 9 -8 8 -17 -1
-10 1 -30 5 -44 6 -22 15 -28 54 -33 62 -8 80 8 56 51 -10 18 -15 37 -10 48 6
16 12 13 51 -25 60 -59 70 -43 12 19 -57 60 -60 80 -9 48 38 -25 137 -44 146
-29 11 17 -25 106 -60 148 -33 41 -39 44 -83 44 -29 0 -53 -6 -60 -14z"/>
<path d="M2625 620 c-16 -7 -17 -9 -3 -9 9 -1 20 4 23 9 7 11 7 11 -20 0z"/>
<path d="M2735 593 c-27 -8 -54 -19 -59 -24 -17 -15 59 -10 80 6 10 8 29 15
42 15 12 0 22 5 22 10 0 14 -25 12 -85 -7z"/>
<path d="M2588 593 c7 -3 16 -2 19 1 4 3 -2 6 -13 5 -11 0 -14 -3 -6 -6z"/>
<path d="M2785 570 c-3 -5 -2 -10 4 -10 5 0 13 5 16 10 3 6 2 10 -4 10 -5 0
-13 -4 -16 -10z"/>
<path d="M2990 510 c0 -6 7 -10 15 -10 8 0 15 2 15 4 0 2 -7 6 -15 10 -8 3
-15 1 -15 -4z"/>
<path d="M3090 506 c0 -7 61 -39 65 -34 2 2 1 9 -3 15 -8 12 -62 29 -62 19z"/>
<path d="M3173 475 c0 -18 13 -20 20 -2 4 10 6 10 6 0 1 -7 9 -13 19 -13 15 1
15 2 -2 15 -25 19 -43 19 -43 0z"/>
</g>
</svg>
